<svg width="59" height="44" viewBox="0 0 59 44" fill="none" xmlns="http://www.w3.org/2000/svg">
<rect width="59" height="44" rx="3" fill="#74C69D"/>
<path d="M34.5676 13.3933C35.3494 12.6095 35.8332 11.528 35.8332 10.3331C35.8332 7.9401 33.8931 6 31.5 6C29.9872 6 28.657 6.77668 27.882 7.95166C27.6761 8.15788 10.4268 29.4181 10.2656 29.6625C9.48374 30.4463 9 31.5281 9 32.7224C9 35.1157 10.9401 37.0558 13.3331 37.0558C14.846 37.0558 16.1761 36.2794 16.9512 35.1041C17.1571 34.8979 34.4064 13.6374 34.5676 13.3933Z" fill="white"/>
<path d="M44.5483 23.4822C45.3324 22.6978 45.8171 21.615 45.8171 20.4185C45.8171 18.0255 43.877 16.0854 41.484 16.0854C39.9704 16.0854 38.6397 16.8627 37.8646 18.0387C37.6571 18.2465 28.5974 29.414 28.4352 29.66C27.6511 30.4444 27.1664 31.5272 27.1664 32.7234C27.1664 35.1167 29.1065 37.0568 31.4995 37.0568C33.013 37.0568 34.3438 36.2795 35.1186 35.1035C35.3261 34.896 44.3861 23.7282 44.5483 23.4822Z" fill="white"/>
<path d="M54 10.3331C54 12.7264 52.0599 14.6662 49.6668 14.6662C47.2735 14.6662 45.3337 12.7264 45.3337 10.3331C45.3337 7.9401 47.2735 6 49.6668 6C52.0599 6 54 7.9401 54 10.3331Z" fill="white"/>
<path d="M17.6662 10.3331C17.6662 12.7264 15.7261 14.6662 13.3331 14.6662C10.9401 14.6662 9 12.7264 9 10.3331C9 7.9401 10.9401 6 13.3331 6C15.7261 6 17.6662 7.9401 17.6662 10.3331Z" fill="white"/>
</svg>
